<?xml version="1.0" encoding="iso-8859-1"?>
<!-- Generator: Adobe Illustrator 19.0.0, SVG Export Plug-In . SVG Version: 6.00 Build 0)  -->
<svg version="1.1" id="Layer_1" xmlns="http://www.w3.org/2000/svg" xmlns:xlink="http://www.w3.org/1999/xlink" x="0px" y="0px"
	 viewBox="0 0 256 256" style="enable-background:new 0 0 256 256;" xml:space="preserve">
<g id="XMLID_3_">
	<path id="XMLID_4_" style="fill:#BF1920;" d="M187.849,88.044c-0.915-6.174-2.973-11.833-6.174-16.977
		c-3.202-5.144-7.203-9.66-12.004-13.547s-10.232-6.917-16.291-9.089c-6.059-2.171-12.404-3.257-19.035-3.258
		c-12.118-0.001-22.408,2.343-30.868,7.03c-8.46,4.687-15.32,10.975-20.579,18.864c-5.259,7.888-9.089,16.863-11.489,26.924
		s-3.601,20.464-3.601,31.21c0,10.29,1.2,20.293,3.601,30.011c2.401,9.718,6.23,18.464,11.489,26.237
		c5.259,7.774,12.119,14.005,20.579,18.693s18.75,7.031,30.868,7.031c16.463,0,29.324-5.031,38.585-15.091
		c9.26-10.061,14.92-23.323,16.977-39.785h52.133c-1.371,15.32-4.916,29.152-10.633,41.499
		c-5.716,12.347-13.262,22.865-22.636,31.554c-9.374,8.689-20.349,15.32-32.925,19.892c-12.576,4.574-26.409,6.86-41.501,6.86
		c-18.749,0-35.612-3.258-50.589-9.775c-14.977-6.516-27.61-15.491-37.899-26.924c-10.29-11.432-18.178-24.865-23.666-40.299
		c-5.487-15.434-8.231-32.069-8.231-49.904c0-18.292,2.744-35.269,8.231-50.931c5.488-15.663,13.376-29.324,23.666-40.986
		C56.146,25.623,68.779,16.476,83.756,9.846c14.977-6.63,31.84-9.946,50.589-9.947c13.491,0,26.238,1.944,38.242,5.831
		c12.004,3.887,22.75,9.546,32.24,16.977c9.488,7.431,17.32,16.634,23.493,27.61c6.174,10.975,10.061,23.551,11.661,37.727H187.849z
		"/>
</g>
</svg>
